<?xml version="1.0" standalone="no"?>
<!DOCTYPE svg PUBLIC "-//W3C//DTD SVG 20010904//EN"
 "http://www.w3.org/TR/2001/REC-SVG-20010904/DTD/svg10.dtd">
<svg version="1.0" xmlns="http://www.w3.org/2000/svg"
 width="1200.000000pt" height="1200.000000pt" viewBox="0 0 1200.000000 1200.000000"
 preserveAspectRatio="xMidYMid meet">

<g transform="translate(0.000000,1200.000000) scale(0.100000,-0.100000)"
fill="#F56A00" stroke="none">
<path d="M1050 6450 l0 -2100 1780 0 1780 0 0 35 0 35 -1745 0 -1745 0 0 2030
0 2030 4880 0 4880 0 0 -2030 0 -2030 -1745 0 -1745 0 0 -35 0 -35 1780 0
1780 0 0 2100 0 2100 -4950 0 -4950 0 0 -2100z"/>
<path d="M1200 6450 l0 -1950 1800 0 1800 0 0 75 0 75 -1725 0 -1725 0 0 1800
0 1800 4650 0 4650 0 0 -1800 0 -1800 -1725 0 -1725 0 0 -75 0 -75 1800 0
1800 0 0 1950 0 1950 -4800 0 -4800 0 0 -1950z"/>
<path d="M5280 6750 l0 -490 90 0 90 0 0 134 0 135 33 25 c19 15 38 26 43 26
5 0 51 -72 103 -160 l94 -160 95 0 c71 0 93 3 89 13 -2 6 -62 104 -131 216
-126 201 -127 204 -109 225 10 11 62 68 114 126 53 58 99 111 103 118 5 9 -14
12 -86 11 l-93 0 -125 -146 -125 -145 -3 281 -2 281 -90 0 -90 0 0 -490z"/>
<path d="M3510 6705 l0 -445 95 0 95 0 0 190 0 190 125 0 125 0 0 -190 0 -190
95 0 95 0 0 445 0 445 -95 0 -95 0 0 -175 0 -175 -125 0 -125 0 0 175 0 175
-95 0 -95 0 0 -445z"/>
<path d="M4625 6980 c-109 -17 -195 -80 -235 -172 -45 -106 -43 -286 5 -384
33 -67 101 -128 168 -150 68 -23 195 -23 265 0 68 23 143 91 171 156 48 111
46 295 -5 397 -47 96 -129 145 -264 157 -30 2 -77 1 -105 -4z m155 -138 c49
-36 65 -86 65 -212 0 -185 -40 -253 -150 -255 -65 0 -100 23 -128 83 -18 39
-21 66 -21 162 0 147 19 200 86 231 50 23 108 19 148 -9z"/>
<path d="M6355 6981 c-71 -12 -116 -33 -157 -75 -31 -32 -68 -110 -57 -120 2
-2 43 -6 92 -7 l87 -4 11 32 c6 18 20 40 32 48 22 15 82 20 112 9 23 -9 42
-51 50 -110 l6 -51 -62 -6 c-34 -4 -85 -7 -114 -7 -178 0 -278 -114 -244 -278
36 -177 283 -217 394 -65 32 44 45 52 45 28 0 -32 35 -85 66 -100 33 -16 99
-20 153 -9 30 6 31 9 31 55 0 47 -1 48 -31 47 -60 -2 -63 10 -70 245 -3 118
-10 223 -16 238 -43 100 -178 153 -328 130z m170 -433 c-15 -108 -69 -168
-152 -168 -55 0 -83 33 -83 99 1 93 37 120 158 121 l84 0 -7 -52z"/>
<path d="M8107 6980 c-168 -29 -267 -163 -267 -360 0 -169 73 -293 200 -341
74 -29 205 -30 280 -3 57 20 134 83 163 132 l17 31 -42 5 c-106 14 -122 13
-139 -15 -21 -33 -76 -59 -124 -59 -88 0 -152 65 -162 164 l-6 56 242 0 241 0
0 38 c0 51 -26 155 -49 200 -60 116 -204 178 -354 152z m133 -116 c44 -18 82
-71 95 -131 l7 -33 -156 0 c-145 0 -156 1 -156 19 0 60 52 135 105 150 45 13
60 13 105 -5z"/>
<path d="M7190 6971 c-89 -19 -150 -79 -181 -184 -18 -56 -20 -88 -18 -191 4
-118 6 -126 39 -192 48 -93 100 -127 199 -127 88 0 151 29 189 86 33 49 36 40
30 -83 -5 -97 -24 -148 -67 -173 -33 -20 -93 -22 -124 -6 -26 15 -56 50 -57
67 0 14 -28 15 -119 6 -70 -8 -74 -15 -37 -79 28 -46 81 -86 141 -106 50 -16
186 -16 242 0 65 18 134 70 160 121 38 74 43 137 43 506 l0 354 -84 0 -83 0
-7 -61 -7 -60 -29 40 c-48 66 -143 100 -230 82z m187 -136 c12 -9 33 -34 45
-58 20 -36 23 -57 23 -152 0 -95 -3 -116 -23 -152 -28 -54 -59 -74 -112 -75
-51 -1 -88 24 -115 78 -16 31 -19 60 -20 144 0 92 3 111 25 155 40 79 110 103
177 60z"/>
<path d="M5133 5336 l-28 -24 0 -737 0 -737 28 -24 28 -24 680 0 c774 0 728
-6 643 82 -68 69 -89 78 -184 78 l-80 0 0 35 0 35 314 0 c294 0 315 1 337 19
l24 19 3 484 c2 265 0 498 -3 516 -3 18 -15 42 -26 53 -18 18 -37 19 -474 19
l-455 0 0 80 c0 89 -11 123 -47 139 -16 7 -140 11 -378 11 l-354 0 -28 -24z
m752 -761 l0 -730 -354 -3 c-253 -2 -358 1 -367 9 -19 16 -21 1428 -2 1447 9
9 100 12 368 10 l355 -3 0 -730z m963 5 c2 -456 1 -496 -15 -507 -13 -10 -120
-13 -455 -13 l-438 0 0 60 0 60 54 0 c67 0 86 7 86 31 0 17 -8 19 -70 19 l-70
0 0 425 0 425 453 -2 452 -3 3 -495z m-678 -595 l0 -35 -79 0 c-81 0 -102 -9
-81 -35 10 -12 47 -15 191 -15 l179 0 32 -30 33 -29 -252 -1 -253 0 0 90 0 90
115 0 115 0 0 -35z"/>
<path d="M5275 5010 c-4 -6 -1 -18 6 -26 10 -12 50 -14 248 -12 228 3 236 4
236 23 0 19 -8 20 -242 23 -162 1 -244 -1 -248 -8z"/>
<path d="M5273 4895 c-3 -9 -1 -21 4 -26 5 -5 107 -8 249 -7 231 3 239 4 239
23 0 19 -8 20 -243 23 -214 2 -243 0 -249 -13z"/>
<path d="M5299 4351 c-45 -37 -23 -120 37 -135 28 -7 79 16 88 39 31 82 -58
150 -125 96z m81 -36 c20 -25 8 -50 -25 -50 -31 0 -43 20 -31 51 7 18 40 18
56 -1z"/>
<path d="M5522 4347 c-37 -40 -28 -98 19 -123 36 -18 73 -10 99 23 26 33 25
64 -1 97 -27 35 -86 36 -117 3z m83 -52 c0 -25 -4 -30 -24 -30 -32 0 -49 28
-31 50 7 9 23 15 34 13 16 -2 21 -10 21 -33z"/>
<path d="M5222 4013 c3 -53 22 -67 39 -30 16 35 4 77 -22 77 -18 0 -20 -5 -17
-47z"/>
<path d="M5360 4016 c0 -49 13 -65 35 -46 28 23 16 90 -16 90 -16 0 -19 -8
-19 -44z"/>
<path d="M5500 4015 c0 -33 5 -47 16 -52 22 -8 35 15 32 57 -2 28 -8 36 -25
38 -21 3 -23 -1 -23 -43z"/>
<path d="M5640 4015 c0 -33 5 -47 16 -52 22 -8 35 15 32 57 -2 28 -8 36 -25
38 -21 3 -23 -1 -23 -43z"/>
<path d="M5782 4013 c3 -40 6 -48 23 -48 17 0 20 7 20 45 0 39 -3 45 -23 48
-22 3 -23 1 -20 -45z"/>
<path d="M6007 5006 c-10 -26 19 -37 85 -34 57 3 63 5 66 26 3 21 0 22 -71 22
-56 0 -76 -4 -80 -14z"/>
<path d="M6234 5005 c-13 -32 6 -35 257 -35 l249 0 -2 -367 -3 -368 -82 -3
c-74 -3 -83 -5 -83 -22 0 -13 9 -22 25 -26 39 -10 151 0 169 15 14 12 16 58
16 405 0 292 -3 395 -12 404 -9 9 -83 12 -270 12 -217 0 -260 -2 -264 -15z"/>
<path d="M6174 4247 c-3 -8 -4 -30 -2 -49 2 -25 8 -33 23 -33 17 0 20 7 20 45
0 35 -4 45 -18 48 -9 2 -20 -3 -23 -11z"/>
<path d="M6314 4247 c-3 -8 -4 -30 -2 -49 2 -26 8 -34 26 -36 22 -3 23 -1 20
45 -2 36 -7 49 -21 51 -9 2 -20 -3 -23 -11z"/>
<path d="M6457 4254 c-9 -9 -9 -57 -1 -78 3 -9 15 -16 26 -16 17 0 19 6 16 47
-2 34 -8 49 -18 51 -9 1 -19 0 -23 -4z"/>
</g>
</svg>
